<?xml version="1.0" encoding="UTF-8"?>
<svg width="20px" height="20px" viewBox="0 0 256 256" version="1.1" xmlns="http://www.w3.org/2000/svg" preserveAspectRatio="xMidYMid">
    <title>CustomTkinter</title>
    <g>
        <path d="M128,0 C57.305,0 0,57.305 0,128 C0,198.695 57.305,256 128,256 C198.695,256 256,198.695 256,128 C256,57.305 198.695,0 128,0 Z M128,232 C71.383,232 24,184.617 24,128 C24,71.383 71.383,24 128,24 C184.617,24 232,71.383 232,128 C232,184.617 184.617,232 128,232 Z" fill="#00ACC1"></path>
        <path d="M128,64 C93.864,64 64,93.864 64,128 C64,162.136 93.864,192 128,192 C162.136,192 192,162.136 192,128 C192,93.864 162.136,64 128,64 Z M128,176 C101.49,176 80,154.51 80,128 C80,101.49 101.49,80 128,80 C154.51,80 176,101.49 176,128 C176,154.51 154.51,176 128,176 Z" fill="#00ACC1"></path>
        <path d="M128,88 C115.297,88 105,98.297 105,111 C105,123.703 115.297,134 128,134 C140.703,134 151,123.703 151,111 C151,98.297 140.703,88 128,88 Z M128,122 C123.58,122 120,118.42 120,114 C120,109.58 123.58,106 128,106 C132.42,106 136,109.58 136,114 C136,118.42 132.42,122 128,122 Z" fill="#00ACC1"></path>
    </g>
</svg>
